# xmcd CD database file
#
# Track frame offsets:
#	150
#	23987
#	41227
#	57475
#	72737
#	86002
#	110585
#	130577
#	143347
#	156942
#	182372
#
# Disc length: 2593 seconds
#
# Revision: 0
# Processed by: cddbd v1.5.1PL0 Copyright (c) Steve Scherf et al.
# Submitted via: CDex 1.40Release
#
DISCID=980a1f0b
DTITLE=Eric Clapton - Sessions for Robert J
DYEAR=2004
DGENRE=Blues
TTITLE0=Sweet Home Chicago
TTITLE1=Milkcow's Calf Blues
TTITLE2=Terraplane Blues
TTITLE3=If I Had Possession Over Judgement Day
TTITLE4=Stop Breakin' Down Blues
TTITLE5=Little Queen Of Spades
TTITLE6=Travelling Riverside Blues
TTITLE7=Me And The Devil Blues
TTITLE8=From Four Until Late
TTITLE9=Kind Hearted Woman Blues
TTITLE10=Ramblin' On My Mind
EXTD=YEAR: 2004 ID3G: 0
EXTT0=
EXTT1=
EXTT2=
EXTT3=
EXTT4=
EXTT5=
EXTT6=
EXTT7=
EXTT8=
EXTT9=
EXTT10=
PLAYORDER=
